<?xml version="1.0" standalone="no"?>
<!DOCTYPE svg PUBLIC "-//W3C//DTD SVG 1.1//EN" "http://www.w3.org/Graphics/SVG/1.1/DTD/svg11.dtd" >
<svg xmlns="http://www.w3.org/2000/svg" xmlns:xlink="http://www.w3.org/1999/xlink" version="1.1">
<metadata></metadata>
<defs>
<font id="datalegreyadot" horiz-adv-x="0" >
<font-face units-per-em="2048" ascent="1638" descent="-410" />
<missing-glyph horiz-adv-x="368" />
<glyph unicode="&#xa7;&#x30;" />
<glyph />
<glyph unicode="&#xd;" horiz-adv-x="368" />
<glyph />
<glyph />
<glyph unicode=" "  horiz-adv-x="368" />
<glyph unicode="&#x09;" horiz-adv-x="368" />
<glyph unicode="&#xa0;" horiz-adv-x="368" />
<glyph unicode="!" horiz-adv-x="505" d="M244 70q41 0 41 -43q0 -41 -41 -41t-41 41q0 43 41 43zM272 319h-32l-9 11l15 833l6 6h29l6 -6z" />
<glyph unicode="&#x22;" horiz-adv-x="454" d="M137 997l-35 -4l-6 8l25 295l35 4l6 -8zM336 997l-35 -4l-6 8l24 295l35 4l6 -8z" />
<glyph unicode="#" horiz-adv-x="983" d="M18 297l-6 6l4 35h242l88 356h-229l-6 6l4 35h241l80 316h33l4 -11l-76 -305h314l80 316h32l4 -11l-75 -305h247l7 -6l-5 -35h-262l-86 -356h248l6 -6l-4 -35h-260l-76 -313h-32l-7 8l74 305h-313l-74 -313h-33l-6 8l72 305h-230zM299 338h313l88 356h-313z" />
<glyph unicode="$" horiz-adv-x="854" d="M696 264q0 -56 -21 -102t-61 -83t-92 -59q-50 -21 -114 -26h-2l-17 -193h-29l-6 9l15 184h-2q-69 5 -128 23q-57 18 -112 51l2 36l8 2q44 -33 109 -55q60 -20 125 -22h2l39 479q-41 19 -96 47q-40 21 -83 55q-35 28 -59 73q-22 41 -22 97q0 57 22 102t64 81q40 34 95 54 q53 19 120 19h2l18 211h31l6 -8l-16 -205h2q34 -5 71 -13q42 -9 95 -32l-9 -35l-10 -2q-78 39 -151 45h-3l-38 -462l2 -3q47 -21 94 -48q44 -25 78 -56q32 -29 52 -71q19 -39 19 -93zM188 776q0 -44 20 -78q18 -31 51 -59q27 -23 73 -47q35 -18 82 -39l2 -2l35 446v2h-2 q-74 0 -119 -23q-48 -25 -74 -48q-68 -68 -68 -152zM412 31q108 7 182 78q31 34 48 71t17 80q0 46 -17 79q-17 32 -46 60q-28 27 -66 48q-50 28 -77 42h-4l-39 -458h2z" />
<glyph unicode="%" horiz-adv-x="1419" d="M1102 1096l-772 -1219l-21 10l-8 21l2 2l770 1218l23 -12l6 -16v-4zM358 500q-115 0 -172 66t-57 214q0 72 12 126q11 52 43 91q61 76 176 76q112 0 172 -74q32 -39 43 -91q13 -58 13 -126q0 -66 -13 -120q-12 -48 -43 -87q-60 -75 -174 -75zM358 1032q-190 0 -190 -250 q0 -127 48 -184t144 -57q93 0 141 57t48 182q0 128 -47 189q-50 63 -144 63zM1065 524q112 0 172 -73q31 -39 43 -92q12 -54 12 -126q0 -71 -12 -120q-11 -46 -43 -86q-61 -76 -176 -76q-113 0 -170 66t-57 214q0 72 12 126q12 53 43 92q60 75 176 75zM1065 -8q92 0 140 57 t48 182q0 128 -47 189q-50 63 -145 63q-189 0 -189 -250q0 -126 49 -184q48 -57 144 -57z" />
<glyph unicode="&#x26;" horiz-adv-x="1155" d="M182 262q0 180 183 285v2q-63 54 -91 110t-28 129q0 120 71 185t201 65q127 0 242 -65l2 -2l-10 -35h-17q-96 63 -213 63q-115 0 -176 -55t-61 -158q0 -63 27 -114q28 -54 87 -105l410 -368q29 70 29 151q0 124 -62 242h-123l-10 8l8 31h447l8 -8l-8 -31h-273v-2 q27 -67 39 -122q13 -62 13 -118q0 -102 -37 -180l196 -180v-6v-2q-8 -9 -11 -10q-11 -6 -13 -7l-2 -2l-6 4l-185 166q-43 -69 -119 -106q-79 -41 -182 -41q-71 0 -133 18t-106 55q-97 74 -97 203zM395 522q-88 -46 -130 -110q-44 -67 -44 -146q0 -110 81 -176 q80 -65 216 -65q95 0 162 35q71 37 111 102z" />
<glyph unicode="'" horiz-adv-x="256" d="M137 997l-35 -4l-6 8l25 295l35 4l6 -8z" />
<glyph unicode="(" horiz-adv-x="575" d="M563 1327q-89 -62 -151 -138q-63 -77 -101 -169q-39 -95 -57 -214q-18 -120 -18 -274q0 -153 18 -273q18 -119 57 -214q38 -92 101 -169q62 -76 151 -138v-8l-18 -23h-8q-91 67 -158 145q-65 76 -106 175q-39 96 -59 222q-19 121 -19 283q0 163 19 283q20 125 59 221 q40 98 106 176t158 146h8l18 -23v-8z" />
<glyph unicode=")" horiz-adv-x="575" d="M12 -262q87 62 151 138q61 73 101 169q41 99 58 214q18 120 18 273q0 154 -18 274q-17 115 -58 214q-40 96 -101 169q-64 76 -151 138v8l19 23h8q92 -68 158 -146q64 -76 105 -176q39 -96 59 -221q20 -126 20 -283q0 -155 -20 -283q-20 -126 -59 -222q-41 -101 -105 -175 q-67 -78 -158 -145h-8l-19 23v8z" />
<glyph unicode="*" horiz-adv-x="745" d="M303 1061l-10 -2l-209 80q0 27 6 43l6 4l213 -96zM342 977l-137 -178q-23 7 -39 20l-2 6l155 181l25 -15zM385 1124l-29 -4l-6 13l10 229q21 6 43 6l5 -4zM555 813q-18 -24 -31 -31h-6l-119 207l23 19l10 -4zM649 1159q15 -16 21 -41l-2 -4l-228 -51l-10 27l6 8z" />
<glyph unicode="+" horiz-adv-x="983" d="M512 573h385l6 -6l-4 -35h-387v-387l-35 -4l-6 6v385h-385l-6 7l4 34h387v388l35 4l6 -7v-385z" />
<glyph unicode="," horiz-adv-x="471" d="M305 61q0 -47 -35 -108q-34 -60 -100 -121l-25 29l2 6q57 54 84 98q31 51 31 94q0 50 -61 84v11q13 20 26 26q78 -44 78 -119z" />
<glyph unicode="-" horiz-adv-x="636" d="M573 535l-501 -68l-9 8v33l502 67l8 -8v-32z" />
<glyph unicode="." horiz-adv-x="471" d="M236 78q40 0 40 -41t-40 -41q-41 0 -41 41t41 41z" />
<glyph unicode="/" horiz-adv-x="595" d="M180 -63h-33l-6 6l328 1296h33l8 -8z" />
<glyph unicode="0" horiz-adv-x="960" d="M479 -8q-173 0 -265 134q-91 133 -91 388q0 254 93 389t267 135q171 0 263 -134t92 -386q0 -254 -93 -391q-91 -135 -266 -135zM479 995q-153 0 -234 -124q-81 -125 -81 -353q0 -234 83 -358q83 -123 236 -123q152 0 233 123t81 354q0 233 -82 357t-236 124z" />
<glyph unicode="1" horiz-adv-x="606" d="M301 991l-238 -71l-10 4v34l283 91l8 -9v-1040h-43v991z" />
<glyph unicode="2" horiz-adv-x="860" d="M111 -2l-5 4v35l283 375q112 149 168 239q59 94 59 176q0 70 -48 121t-142 51q-81 0 -152 -43q-72 -44 -131 -120h-6l-10 36q56 78 133 123q78 45 168 45q105 0 169 -58q65 -59 65 -148t-64 -194q-64 -106 -180 -257l-252 -336l4 -4h471l160 2l4 -10l-6 -37l-166 2h-445z " />
<glyph unicode="3" horiz-adv-x="747" d="M90 889l-8 39q62 60 121 87q60 27 125 27q104 0 167 -56q64 -57 64 -152q0 -82 -49 -153q-51 -74 -135 -114v-6q114 -24 175 -91q60 -66 60 -171q0 -70 -26 -123t-74 -95q-46 -40 -115 -63q-66 -22 -147 -22q-40 0 -77 4q-50 5 -79 10l-4 37l4 4q38 -6 79 -9q42 -3 77 -3 q144 0 233 71q88 70 88 189q0 111 -76 171q-78 61 -219 67h-84l-4 6l2 32h76q37 0 83 19q44 18 81 52q38 35 61 80q25 48 25 99q0 78 -51 126t-137 48q-118 0 -228 -110h-8z" />
<glyph unicode="4" horiz-adv-x="856" d="M526 958h-6l-401 -577h407v577zM752 338l-127 2h-58l2 -340h-43v340h-372l-78 -2l-6 6v35l456 657h41v-655h185l6 -8z" />
<glyph unicode="5" horiz-adv-x="731" d="M623 995l-7 -4l-75 4h-338l-10 -358l116 -27q161 -38 236 -104q76 -67 76 -178q0 -75 -29 -139q-28 -62 -81 -106t-125 -68q-69 -23 -163 -23q-26 0 -61 3q-32 3 -70 11l-6 35l4 6q20 -3 73 -10q31 -4 62 -4q80 0 146 21q60 19 111 60q46 37 72 92t26 122q0 91 -70 149 q-69 57 -217 92l-131 31l-8 10l10 412l14 16l88 -2h240l117 2l4 -4z" />
<glyph unicode="6" horiz-adv-x="827" d="M406 -10q-142 0 -219 96q-76 95 -76 279q0 238 136 413q139 178 390 269h6l23 -23v-8q-217 -78 -343 -210t-159 -312l2 -5q61 50 129 77q72 28 147 28q130 0 202 -74q73 -75 73 -211q0 -153 -80 -236t-231 -83zM156 436q-1 -11 -3 -35q-1 -12 -1 -36q0 -163 65 -249 q66 -87 191 -87q129 0 197 71q69 72 69 207q0 120 -63 183t-173 63q-76 0 -149 -32q-69 -30 -133 -85z" />
<glyph unicode="7" horiz-adv-x="733" d="M172 993l-100 -2l-9 10l7 37l114 -2h412l61 2l2 -39l-380 -860l-62 -155l-39 12l-2 8l438 989h-442z" />
<glyph unicode="8" horiz-adv-x="813" d="M100 254q0 59 22 106q21 44 57 79q38 36 79 59q49 27 86 41v4q-34 16 -74 40q-35 21 -62 50q-28 30 -44 67q-17 40 -17 91q0 118 76 184q75 65 193 65q116 0 179 -62q64 -63 64 -173q0 -57 -17 -97q-19 -45 -46 -73q-28 -30 -67 -53q-39 -24 -80 -39v-4q30 -12 90 -40 q39 -18 79 -53q38 -33 57 -73q21 -43 21 -105q0 -126 -83 -201t-222 -75q-134 0 -213 73q-78 72 -78 189zM188 791q0 -49 18 -85q18 -37 46 -63q27 -26 66 -46q34 -18 79 -36q45 17 81 34q40 19 72 48q31 28 51 68t20 94q0 91 -56 144q-55 52 -149 52q-103 0 -165 -56 q-63 -57 -63 -154zM391 520q-39 -15 -87 -38q-40 -19 -81 -52q-35 -28 -59 -74q-23 -44 -23 -102q0 -100 67 -161q66 -60 183 -60q123 0 194 63q70 63 70 168q0 57 -22 97t-61 68q-40 28 -85 49q-47 21 -96 42z" />
<glyph unicode="9" horiz-adv-x="790" d="M365 444q-129 0 -201 74t-72 213q0 153 80 236q79 82 229 82q144 0 221 -97q76 -95 76 -278q0 -239 -136 -414q-138 -177 -390 -268h-8l-21 22v11q218 78 342 208q125 131 160 312l-4 4q-64 -50 -128 -76q-70 -29 -148 -29zM401 1010q-129 0 -198 -72q-70 -73 -70 -207 q0 -120 63 -183t173 -63q77 0 150 32t134 87q1 11 3 35q1 12 1 35q0 163 -65 249q-66 87 -191 87z" />
<glyph unicode=":" horiz-adv-x="471" d="M227 762q41 0 41 -43q0 -41 -41 -41t-41 41q0 43 41 43zM227 70q41 0 41 -43q0 -41 -41 -41t-41 41q0 43 41 43z" />
<glyph unicode=";" horiz-adv-x="471" d="M227 762q41 0 41 -43q0 -41 -41 -41t-41 41q0 43 41 43zM297 61q0 -47 -35 -108q-34 -60 -100 -121l-25 29l2 6q57 54 84 98q31 51 31 94q0 50 -61 84v11q13 20 26 26q78 -44 78 -119z" />
<glyph unicode="&#x3c;" horiz-adv-x="983" d="M893 893l-758 -336v-8l766 -313l-12 -31l-8 -4l-799 327v45l6 9l797 350l14 -29z" />
<glyph unicode="=" horiz-adv-x="983" d="M899 680h-813l-6 6l4 35h813l6 -6zM899 385h-813l-6 6l4 35h813l6 -6z" />
<glyph unicode="&#x3e;" horiz-adv-x="983" d="M901 573v-45l-799 -327l-8 4l-12 31l766 313v8l-758 336l-6 10l14 29l797 -350z" />
<glyph unicode="?" horiz-adv-x="614" d="M119 1198q224 -18 347 -88q122 -69 122 -213q0 -41 -17 -80q-16 -37 -43 -68q-31 -36 -59 -59q-27 -22 -66 -47l-141 -96l-2 -6l10 -228l-34 -4l-7 10l-12 236l10 20l152 99q70 46 119 99t49 120q0 126 -114 189t-329 75l-4 6l6 29zM268 70q41 0 41 -43q0 -41 -41 -41 t-41 41q0 43 41 43z" />
<glyph unicode="@" horiz-adv-x="1462" d="M817 -225l-22 -31h-2q-156 5 -282 52q-125 47 -222 141q-97 92 -145 217q-48 124 -48 274q0 167 49 301q50 132 144 232q91 97 223 149q127 51 287 51q260 0 415 -155q75 -75 116 -180q40 -102 40 -226q0 -242 -139 -375q-133 -133 -393 -151h-2v2l63 499h-6 q-77 -153 -172 -285q-92 -128 -184 -214v-2h-21h-2q-48 39 -70 94q-22 62 -22 164q0 116 27 220q27 105 77 181q51 82 130 130q78 48 169 55h6l115 -11l25 13l10 -7l-82 -637l-14 -161q222 23 334 145t112 340q0 118 -38 215q-37 95 -107 165q-67 67 -168 105 q-98 37 -219 37q-151 0 -273 -49q-124 -50 -210 -139q-87 -90 -135 -217t-48 -281q0 -150 47 -271q46 -118 136 -205q87 -84 215 -130q126 -45 284 -45zM668 276q44 60 111 167q61 98 136 251l7 47l12 127l-105 9q-168 -5 -270 -166q-48 -76 -73 -170t-25 -201q0 -56 8 -99 q8 -41 18 -65q10 -23 23 -36q11 -11 20 -11q8 0 44 36q44 44 94 111z" />
<glyph unicode="A" horiz-adv-x="1134" d="M1030 0l-26 88l-130 348h-618l-139 -348l-29 -88h-49l520 1305h41l477 -1305h-47zM582 1235h-9l-301 -758h588z" />
<glyph unicode="B" horiz-adv-x="1007" d="M616 684q140 -22 219 -99q80 -79 80 -225q0 -175 -119 -270q-120 -96 -347 -96q-68 0 -109 1q-79 2 -115 5v1305l252 4q162 0 249 -78t87 -225q0 -127 -52 -206q-51 -78 -145 -116zM266 1266v-564l266 -6q117 23 178 103q60 79 60 207q0 121 -75 190q-76 70 -203 70h-226 zM440 35q211 0 323 86q111 85 111 239q0 134 -83 208q-84 75 -240 87h-285v-614q27 -3 86 -5q30 -1 88 -1z" />
<glyph unicode="C" horiz-adv-x="1071" d="M641 1313q96 0 192 -31q90 -29 168 -90l-14 -35h-14q-68 54 -155 85q-86 30 -177 30q-246 0 -374 -161t-128 -464q0 -299 123 -458q122 -158 354 -158q98 0 196 36t179 101l15 -4l-5 -37q-83 -64 -185 -101q-99 -36 -198 -36q-253 0 -387 170q-133 169 -133 489 q0 321 140 493q140 171 403 171z" />
<glyph unicode="D" horiz-adv-x="1304" d="M637 1315q275 0 423 -160q146 -158 146 -461q0 -342 -151 -523t-439 -181q-35 0 -69 1q-18 1 -55.5 1.5t-56.5 0.5q-80 2 -119 3q-7 0 -91 4v1305zM616 31q267 0 408 171t141 492q0 281 -136 430q-136 150 -392 150q-33 0 -65 -1q-48 -1 -105 -3l-114 -3q-57 -1 -87 -3 v-1223q7 0 22.5 -1t31.5 -2t31 -1q17 -1 52.5 -2t53.5 -1q17 0 49.5 -0.5t47.5 -1.5q29 -1 62 -1z" />
<glyph unicode="E" horiz-adv-x="929" d="M862 0h-637v1305h631l6 -9l-8 -32h-588v-568h488l6 -8l-8 -33h-486v-614h598l6 -8z" />
<glyph unicode="F" horiz-adv-x="841" d="M266 676h465l6 -8l-8 -33h-463v-635h-41v1305h609l6 -9l-9 -32h-565v-588z" />
<glyph unicode="G" horiz-adv-x="1234" d="M702 1313q87 0 183 -29q91 -27 186 -82l-12 -37h-15q-88 53 -173 79q-90 28 -169 28q-272 0 -417 -163q-146 -164 -146 -470q0 -297 127 -452q128 -156 363 -156q49 0 91 3q47 3 87 10q66 11 95 18q59 14 114 30v391l41 4v-426q-30 -8 -122 -31q-63 -16 -104 -22 q-50 -8 -97 -12q-48 -5 -103 -6q-259 0 -395 168q-138 170 -138 483q0 327 156 499q156 173 448 173z" />
<glyph unicode="H" horiz-adv-x="1372" d="M1147 0h-41v643h-840v-643h-41v1305h41v-621h840v621h41v-1305z" />
<glyph unicode="I" horiz-adv-x="491" d="M225 0v1305h41v-1305h-41z" />
<glyph unicode="J" horiz-adv-x="548" d="M328 236q0 -72 -15 -132q-15 -59 -46 -111q-30 -50 -82 -99q-55 -52 -122 -95l-22 23v12q130 85 188 178t58 219v1033h-262l-9 8l7 33h305v-1069z" />
<glyph unicode="K" horiz-adv-x="1038" d="M225 0v1305h41v-1305h-41zM381 696q147 -179 310 -352q181 -193 329 -334v-8q-4 -6 -12 -9q-16 -6 -17 -7l-8 2q-167 161 -338 343q-166 176 -319 361v6l510 510l88 97h63z" />
<glyph unicode="L" horiz-adv-x="815" d="M797 0h-574v1305h41v-1264h535l6 -8z" />
<glyph unicode="M" horiz-adv-x="1599" d="M1401 0l-41 399l-90 807h-10l-439 -1040h-51l-430 1040h-10l-88 -807l-43 -399h-43l143 1305h47l82 -203l363 -877h8l383 899l75 181h48l139 -1305h-43z" />
<glyph unicode="N" horiz-adv-x="1372" d="M1143 0h-39l-828 1219h-8l-2 -811v-408h-41v389l2 916h39l828 -1219h8l4 1217l41 4l-2 -947z" />
<glyph unicode="O" horiz-adv-x="1284" d="M651 1315q261 0 398 -165q137 -166 137 -476q0 -332 -144 -508t-411 -176q-258 0 -395 170q-138 171 -138 489q0 323 143 495q143 171 410 171zM651 1274q-248 0 -380 -161t-132 -464q0 -301 127 -459q128 -159 365 -159q248 0 381 166t133 477q0 291 -127 445 q-128 155 -367 155z" />
<glyph unicode="P" horiz-adv-x="991" d="M514 1309q181 0 276 -95t95 -272q0 -210 -113 -321q-112 -111 -323 -111h-183v-510h-41v1305zM510 551q162 17 248 119q86 103 86 272q0 152 -81 236t-235 90l-262 -2v-715h244z" />
<glyph unicode="Q" horiz-adv-x="1286" d="M741 -2q156 -134 351 -222t401 -112v-12l-16 -25h-11q-211 27 -411 121q-201 95 -367 244q-20 -2 -28 -2h-29q-258 0 -395 170q-138 171 -138 489q0 323 143 495q143 171 410 171q261 0 398 -165q137 -166 137 -476q0 -296 -114 -469t-331 -207zM139 649q0 -301 127 -459 q128 -159 365 -159q248 0 381 166t133 477q0 291 -127 445q-128 155 -367 155q-248 0 -380 -161t-132 -464z" />
<glyph unicode="R" horiz-adv-x="1060" d="M584 547q88 -144 177 -272q93 -134 193 -265v-8q-11 -11 -24 -16l-12 4q-108 139 -198 271q-95 139 -179 278h-275v-539h-41v1305l289 4q181 0 276 -92t95 -267q0 -151 -77 -255q-76 -103 -224 -148zM557 580q139 34 213 131t74 239q0 148 -81 230q-80 82 -235 88 l-262 -2v-686h291z" />
<glyph unicode="S" horiz-adv-x="911" d="M504 1311q40 0 112 -13q64 -12 138 -47l-9 -37l-14 -2q-63 31 -122 44q-65 14 -109 14q-78 0 -139 -26q-62 -26 -101 -67q-41 -42 -62 -94q-22 -53 -22 -100q0 -81 46 -133q48 -54 116 -94q71 -42 149 -77q84 -38 150 -81q69 -45 116 -109q46 -62 46 -157q0 -65 -28 -130 q-26 -61 -79 -109q-51 -47 -121 -74q-69 -27 -153 -27q-78 0 -162 24q-80 23 -150 72l3 39l10 4q66 -51 145 -75q76 -23 152 -23q80 0 142 25q63 26 108 69q43 42 68 96q24 53 24 109q0 84 -46 140q-44 54 -116 98q-65 39 -150 78q-81 37 -149 81q-69 45 -116 107 q-46 61 -46 153q0 65 27 124t76 102q52 46 116 70q69 26 150 26z" />
<glyph unicode="T" horiz-adv-x="972" d="M907 1264h-399v-1264h-41v1264h-404l-6 8l9 33h843l6 -9z" />
<glyph unicode="U" horiz-adv-x="1253" d="M1077 469q6 -228 -112 -352q-119 -125 -338 -125q-222 0 -336 123q-115 124 -115 354v836h41v-836q-1 -211 104 -324q105 -112 306 -112q199 0 304 112q105 113 105 324v836h41v-836z" />
<glyph unicode="V" horiz-adv-x="1101" d="M518 0l-477 1305h47l27 -88l422 -1147h8l456 1147l29 88h49l-520 -1305h-41z" />
<glyph unicode="W" horiz-adv-x="1810" d="M1233 0l-320 897h-8l-348 -897h-41l-469 1305h47l27 -88l414 -1147h8l346 895l-123 340h45l27 -88l413 -1147h9l448 1147l29 88h47l-510 -1305h-41z" />
<glyph unicode="X" horiz-adv-x="1159" d="M1065 0h-55l-49 78l-396 565l-395 -569l-45 -74h-55l469 676l-441 629h58l45 -72l364 -524l357 514l49 82h55l-434 -629z" />
<glyph unicode="Y" horiz-adv-x="1013" d="M508 0h-41v504l-414 801h53l23 -54l354 -684h11l385 684l22 54h53l-446 -803v-502z" />
<glyph unicode="Z" horiz-adv-x="1038" d="M121 41h678l139 2l8 -10l-6 -33h-801l-73 -2v37l821 1229h-656l-118 -2l-9 10l7 35l133 -2h622l76 2v-37z" />
<glyph unicode="[" />
<glyph unicode="\" />
<glyph unicode="]" />
<glyph unicode="^" horiz-adv-x="833" d="M778 240l-30 -11l-314 717h-8l-336 -708l-10 -7l-29 15l350 745l9 6h45l327 -749z" />
<glyph unicode="_" horiz-adv-x="931" d="M958 -217h-983l-6 6l4 35h983l7 -6z" />
<glyph unicode="`" horiz-adv-x="798" d="M266 1370q84 -86 156 -153q75 -70 143 -127l-22 -27l-11 -2q-65 56 -149 135q-64 60 -145 141l-2 11l20 20z" />
<glyph unicode="a" horiz-adv-x="1011" d="M141 74l-24 -74h-47l424 1036h43l276 -731l113 -305h-47l-21 74l-82 217h-545zM510 973l-262 -643h514l-246 643h-6z" />
<glyph unicode="b" horiz-adv-x="909" d="M797 266q0 -141 -100 -206q-98 -64 -287 -64h-93q-56 0 -96 4v1036l215 2q135 0 206 -68q73 -70 73 -186q0 -100 -43 -164q-45 -66 -119 -94q111 -16 178 -80q66 -63 66 -180zM262 997v-454l217 -4q93 17 142 81t49 162q0 95 -62 155t-166 60h-180zM754 266 q0 103 -67 164q-65 59 -193 70l-232 -2v-457q68 -6 141 -6q171 0 261 57t90 174z" />
<glyph unicode="c" horiz-adv-x="956" d="M862 948l-12 -37h-12q-55 42 -127 67q-66 23 -144 23q-199 0 -302 -124t-103 -363q0 -234 99 -359q99 -124 286 -124q82 0 160 28q77 28 145 80l12 -4l-4 -39q-73 -52 -152 -78q-78 -26 -159 -26q-211 0 -321 134q-109 133 -109 388q0 256 115 392t333 136q78 0 156 -24 q75 -23 139 -70z" />
<glyph unicode="d" horiz-adv-x="1148" d="M563 1044q227 0 347 -128t120 -365q0 -270 -125 -415q-125 -144 -360 -144q-31 0 -59 1q-15 1 -45 1.5t-46 0.5t-48.5 0.5t-48.5 1.5q-49 2 -77 3v1036zM989 549q0 222 -109 337t-319 115q-25 0 -51 -1q-14 -1 -42.5 -1.5t-43.5 -0.5q-62 -2 -92 -3q-60 -2 -70 -2v-954 q27 -1 69 -3q14 -1 42.5 -1.5t42.5 -0.5t40.5 -0.5t39.5 -1.5q25 -1 51 -1q213 0 327 133q115 135 115 385z" />
<glyph unicode="e" horiz-adv-x="843" d="M750 0h-529v1036h524l7 -10l-9 -33l-481 2v-454h400l4 -9l-7 -34h-397v-459h490l6 -6z" />
<glyph unicode="f" horiz-adv-x="755" d="M250 498v-498h-41v1036h506l4 -10l-6 -33l-463 2v-456h211l168 2l6 -11l-6 -32h-379z" />
<glyph unicode="g" horiz-adv-x="1089" d="M920 954l-13 -37h-10q-79 44 -143 63q-72 21 -138 21q-220 0 -337 -127q-117 -128 -117 -368q0 -230 101 -352q102 -123 294 -123q28 0 74 2q23 1 69 7q31 4 76 14q43 9 92 24v350l41 4v-383q-42 -12 -100 -26q-52 -12 -85 -17q-40 -6 -81 -9t-86 -3q-213 0 -326 132 q-112 131 -112 382q0 260 128 397t369 137q73 0 151 -22q79 -22 153 -66z" />
<glyph unicode="h" horiz-adv-x="1204" d="M262 498v-498h-41v1036h41v-497h680v497h41v-1036h-41v498h-680z" />
<glyph unicode="i" horiz-adv-x="485" d="M262 1036v-1036h-41v1036h41z" />
<glyph unicode="j" horiz-adv-x="534" d="M313 190q0 -115 -43 -194q-45 -83 -147 -154l-25 23v10q93 67 134 139q40 71 40 174v809h-209l-6 7l6 34h250v-848z" />
<glyph unicode="k" horiz-adv-x="935" d="M844 -8q-149 139 -275 271q-139 145 -258 286v6l414 403l72 78h59l-491 -483q134 -159 251 -279q127 -130 269 -264l-2 -8q-3 -4 -14 -7q-12 -4 -17 -7zM264 0h-41v1036h41v-1036z" />
<glyph unicode="l" horiz-adv-x="747" d="M690 33l-6 -33h-465v1036h41v-997h426z" />
<glyph unicode="m" horiz-adv-x="1388" d="M240 317l-33 -317h-43l117 1036h49l65 -162l293 -647h6l307 666l64 143h47l113 -1036h-41l-33 315l-74 627h-8l-354 -776h-47l-349 776h-8z" />
<glyph unicode="n" horiz-adv-x="1204" d="M262 324v-324h-41v307l2 729h41l668 -952h8l2 948l41 6l-2 -749l-2 -289h-41l-668 950h-6z" />
<glyph unicode="o" horiz-adv-x="1132" d="M557 -8q-211 0 -325 134q-113 132 -113 388t117 393t339 137q213 0 326 -132q113 -133 113 -377q0 -263 -118 -403t-339 -140zM573 1001q-202 0 -306 -123q-105 -124 -105 -362q0 -237 101 -360q102 -125 294 -125q200 0 308 129t108 370q0 228 -103 351 q-101 120 -297 120z" />
<glyph unicode="p" horiz-adv-x="894" d="M262 0h-41v1036l244 2q148 0 227 -76q80 -77 80 -219q0 -170 -94 -260t-268 -90h-148v-393zM262 432h199q130 15 198 95q70 82 70 214q0 121 -65 186q-66 66 -191 72l-211 -2v-565z" />
<glyph unicode="q" horiz-adv-x="1134" d="M655 4q128 -107 284 -173t325 -87v-10q-10 -20 -17 -27h-8q-174 23 -335 98q-164 77 -298 193q-16 -2 -24 -2h-25q-211 0 -325 134q-113 132 -113 388t117 393q118 138 339 138q213 0 326 -133t113 -375q0 -234 -92 -371t-267 -166zM557 35q200 0 308 129t108 371 q0 227 -103 350q-102 121 -297 121q-201 0 -306 -124t-105 -362q0 -237 101 -360q102 -125 294 -125z" />
<glyph unicode="r" horiz-adv-x="954" d="M262 0h-41v1036l244 2q147 0 227 -80t80 -219q0 -119 -62 -209q-63 -91 -182 -129q59 -97 138 -200q71 -92 161 -187l2 -8q-10 -6 -14 -9l-12 -9l-15 6q-91 88 -162 190q-78 112 -141 209h-223v-393zM262 434l236 -2q111 28 172 112q59 81 59 193q0 119 -65 187 q-66 69 -191 75l-211 -2v-563z" />
<glyph unicode="s" horiz-adv-x="827" d="M698 266q0 -57 -23 -104t-65 -86q-40 -38 -99 -60q-57 -22 -128 -22q-64 0 -133 18q-68 18 -125 58l2 39l10 2q53 -39 120 -59q64 -19 126 -19q66 0 115 20q53 22 86 52q34 31 54 74q19 41 19 85q0 66 -37 109q-35 41 -95 77q-57 34 -122 61q-60 25 -121 63 q-59 37 -95 85q-37 49 -37 123q0 56 22 101q23 48 63 82q41 35 96 55q54 20 124 20q41 0 95 -9q52 -9 114 -38l-9 -39l-12 -2q-49 26 -101 37q-47 10 -91 10q-66 0 -112 -20q-49 -21 -81 -52q-31 -29 -50 -71q-18 -39 -18 -78q0 -61 38 -102q39 -42 95 -73q64 -35 121 -60 q60 -26 122 -65q55 -35 94 -86q38 -50 38 -126z" />
<glyph unicode="t" horiz-adv-x="876" d="M268 995l-176 -2l-6 8l6 35h696l5 -10l-7 -33l-170 2h-155v-995h-41v995h-152z" />
<glyph unicode="u" horiz-adv-x="1107" d="M553 -6q-183 0 -279 97q-96 98 -92 280l2 151v514h43l-4 -663q-2 -167 83 -253q86 -87 247 -87t247 87q85 86 85 253v663h41v-665q4 -180 -95 -279q-98 -98 -278 -98z" />
<glyph unicode="v" horiz-adv-x="985" d="M504 0h-43l-389 1036h47l22 -73l340 -900h6l369 900l25 73h47z" />
<glyph unicode="w" horiz-adv-x="1562" d="M502 0h-43l-381 1036h47l20 -73l334 -897h6l281 700l-100 270h45l22 -75l332 -895h8l361 897l24 73h45l-413 -1036h-43l-259 698h-6z" />
<glyph unicode="x" horiz-adv-x="1032" d="M147 0h-53l383 516l-360 520h57l37 -59l293 -426l289 418l38 67h56l-357 -520l388 -516h-56l-41 63l-317 420l-320 -422z" />
<glyph unicode="y" horiz-adv-x="915" d="M422 0v383l-340 653h51l19 -45l286 -545h8l312 545l20 45h51l-366 -655v-381h-41z" />
<glyph unicode="z" horiz-adv-x="931" d="M797 0h-658l-63 -2v35l667 962h-530l-100 -2l-7 8l7 37l112 -2h510l64 2v-39l-668 -960h547l117 2l8 -8z" />
<glyph unicode="{" />
<glyph unicode="|" horiz-adv-x="655" d="M348 -543h-35l-6 8v2151l37 4l4 -4v-2159z" />
<glyph unicode="}" />
<glyph unicode="~" horiz-adv-x="983" d="M301 571q-21 0 -49 -25q-18 -16 -80 -69h-12l-15 19v10l131 108l13 7q30 -4 91 -20q22 -6 65.5 -18t50.5 -14q53 -15 110 -28q55 -13 76 -13q19 0 49 25q15 12 80 70h12l15 -21v-8l-133 -111l-13 -4q-27 1 -91 18q-76 20 -115 31q-66 19 -109 30q-49 13 -76 13z" />
<glyph unicode="&#xa1;" horiz-adv-x="505" d="M266 858q-41 0 -41 41t41 41t41 -41t-41 -41zM227 530h33l8 -10l-16 -917l-6 -6h-29l-6 6z" />
<glyph unicode="&#xa2;" horiz-adv-x="786" d="M735 172q-52 -38 -124 -63q-73 -25 -146 -25h-27l-28 -317h-31l-8 8l26 315q-134 27 -214 149q-79 121 -79 310q0 109 26 199q25 87 74 151q47 62 114 97q65 34 149 34h10l27 301h33l8 -10l-25 -295q53 -7 115 -30q53 -20 96 -52l-14 -35h-12q-31 24 -85 47 q-50 21 -104 29l-74 -860h25q71 0 137 23q71 25 123 65l12 -4zM145 549q0 -170 69 -281q68 -110 187 -137l72 858h-6q-148 0 -235 -119q-87 -118 -87 -321z" />
<glyph unicode="&#xa3;" horiz-adv-x="786" d="M702 0h-628l-8 8l6 29q69 11 106 68q37 58 37 161v365h-137l-8 8l6 33h139v243q0 142 64 220q62 75 190 75q43 0 94 -9q53 -9 109 -30l-4 -38l-6 -5q-46 23 -95 32q-50 9 -92 9q-115 0 -167 -65t-52 -189v-243h256l6 -8l-6 -33h-256v-365q0 -152 -82 -221v-4h385l141 2 l9 -10z" />
<glyph unicode="&#xa4;" />
<glyph unicode="&#xa5;" horiz-adv-x="888" d="M856 301l-4 -35h-389v-266h-41v266h-383l-6 6l4 35h385v76l-82 149h-301l-6 7l4 34h280l-235 433h51l19 -43l286 -519h8l312 519l20 43h51l-254 -433h275l6 -6l-4 -35h-301l-88 -151v-74h387z" />
<glyph unicode="&#xa6;" horiz-adv-x="655" d="M348 754l-35 -4l-6 6v860l37 4l4 -4v-862zM348 -543h-35l-6 8v857l35 6l6 -11v-860z" />
<glyph unicode="&#xa8;" horiz-adv-x="798" d="M254 1260q41 0 41 -41t-41 -41t-41 41t41 41zM541 1260q41 0 41 -41t-41 -41t-41 41t41 41z" />
<glyph unicode="&#xa9;" horiz-adv-x="1396" d="M1294 522q0 -146 -43 -263q-44 -119 -122 -203q-79 -85 -188 -131q-108 -46 -245 -46q-136 0 -244 46q-112 47 -188 131q-78 85 -121 203q-43 117 -43 263q0 147 43 264q44 120 121 203t188 130q108 46 244 46q137 0 245 -46q109 -46 188 -130q78 -82 122 -203 q43 -117 43 -264zM696 -78q127 0 228 43q104 45 176 122q73 79 113 189t40 246t-40 246q-41 112 -113 190q-73 79 -176 123q-101 43 -228 43q-126 0 -227 -43q-104 -44 -175 -123q-73 -81 -113 -190q-40 -110 -40 -246t40 -246q39 -108 113 -189q70 -77 175 -122 q101 -43 227 -43zM715 844q-129 0 -198 -82q-68 -81 -68 -236q0 -153 66 -234t190 -81q53 0 104 16t98 52l8 -3l-4 -40q-50 -30 -101 -49q-53 -19 -108 -19q-145 0 -220 92q-74 90 -74 266q0 177 78 268q80 93 229 93q51 0 105 -17q51 -16 95 -45l-10 -39h-10q-36 28 -84 43 q-47 15 -96 15z" />
<glyph unicode="&#xaa;" horiz-adv-x="606" d="M305 1319q80 0 123 -40t43 -112q0 -3 -0.5 -11t-1 -23t-0.5 -29q0 -15 -1.5 -52t-2.5 -58t-2.5 -57.5t-1.5 -51.5q0 -14 -0.5 -29t-1 -23.5t-0.5 -11.5q0 -71 47 -71q29 0 53 18l8 -4l-6 -33q-29 -18 -65 -18q-38 0 -57 22t-21 76h-4q-39 -45 -84 -72q-44 -26 -90 -28 q-76 0 -117 39t-41 110q0 50 31 84q30 33 84 45l229 49l4 121q0 121 -129 121q-86 0 -186 -82l-9 2l-8 31q104 88 207 88zM211 956q-86 -18 -86 -94q0 -53 31 -84q30 -30 88 -30q41 0 87 28q45 28 87 82l6 148z" />
<glyph unicode="&#xab;" horiz-adv-x="727" d="M61 467l318 344l24 -18v-13l-297 -323l297 -324v-12l-24 -19l-318 342v23zM360 467l318 344l24 -18v-13l-296 -323l296 -324v-12l-24 -19l-318 342v23z" />
<glyph unicode="&#xac;" horiz-adv-x="983" d="M852 145l-35 -4l-6 6v385h-733l-6 7l4 34h764l12 -12v-416z" />
<glyph unicode="&#xad;" horiz-adv-x="636" d="M573 535l-501 -68l-9 8v33l502 67l8 -8v-32z" />
<glyph unicode="&#xae;" horiz-adv-x="884" d="M365 606h-46v406h121q123 0 123 -117q0 -41 -21 -75q-20 -33 -63 -52q26 -42 51 -77q18 -25 58 -77v-6q-5 -3 -22 -5q-14 -1 -21 -3l-6 4q-38 54 -55 79q-28 40 -50 77h-72v-27zM362 803l82 -4q74 24 74 92q0 78 -88 82l-65 -2zM438 422q-166 0 -264 101t-98 272 q0 84 25 152t74 117q47 47 115 75q64 26 148 26q85 0 149 -26q67 -27 113 -75q48 -50 73 -117q26 -70 26 -152q0 -170 -99 -272q-98 -101 -262 -101zM438 1126q-146 0 -235 -90q-88 -89 -88 -241t88 -243t235 -91q146 0 234 91t88 243t-88 241q-88 90 -234 90z" />
<glyph unicode="&#xaf;" horiz-adv-x="798" d="M694 1202h-588l-6 6l4 35h588l6 -6z" />
<glyph unicode="&#xb0;" horiz-adv-x="602" d="M301 1315q50 0 96 -20q45 -20 79 -52q33 -31 53 -78q20 -46 20 -96t-20 -96q-20 -47 -53 -78q-35 -33 -79 -51q-48 -19 -96 -19q-51 0 -98 19q-44 18 -79 51q-33 31 -53 78q-20 46 -20 96t20 96q20 47 53 78q34 32 79 52q46 20 98 20zM301 1274q-40 0 -79 -17 q-37 -16 -66 -44q-27 -26 -46 -65q-18 -38 -18 -79t18 -78t46 -64q29 -28 66 -44q39 -17 79 -17t79 17q37 16 66 44q31 29 46 64q16 36 16 78q0 43 -16 79q-16 37 -46 65q-29 28 -66 44q-39 17 -79 17z" />
<glyph unicode="&#xb1;" horiz-adv-x="983" d="M512 573h385l6 -6l-4 -35h-387v-387l-35 -4l-6 6v385h-385l-6 7l4 34h387v388l35 4l6 -7v-385zM899 -133h-813l-6 6l4 35h813l6 -6z" />
<glyph unicode="&#xb2;" horiz-adv-x="688" d="M344 1438q83 0 133 -43q51 -43 51 -111q0 -65 -48 -140q-46 -72 -140 -186l-193 -237l5 -4h358l125 2l4 -8l-6 -35l-133 2h-346l-60 -2l-4 4v31l219 268q85 106 130 173q46 68 46 126q0 50 -36 85q-37 36 -109 36q-59 0 -118 -31q-55 -29 -101 -86h-6l-9 35q43 54 106 88 q60 33 132 33z" />
<glyph unicode="&#xb3;" horiz-adv-x="600" d="M266 1440q82 0 133 -42q52 -43 52 -114q0 -58 -39 -111t-105 -81v-5q89 -18 135 -67q47 -50 47 -123q0 -99 -78 -161t-208 -62q-27 0 -61 3q-33 3 -62 9l-4 33l4 4q23 -4 62 -7q34 -3 61 -3q111 0 178 49q68 50 68 135q0 77 -58 121q-56 42 -166 47h-67l-4 4l2 31h59 q32 0 65 13q34 13 62 37q30 26 47 56q19 35 19 72q0 55 -40 89t-106 34q-87 0 -176 -80h-6l-8 35q91 84 194 84z" />
<glyph unicode="&#xb4;" horiz-adv-x="798" d="M565 1348l-2 -11q-81 -81 -145 -141q-72 -68 -150 -135l-10 2l-22 27q68 57 143 127q72 67 156 153l10 -2z" />
<glyph unicode="&#xb5;" />
<glyph unicode="&#xb6;" />
<glyph unicode="&#xb7;" horiz-adv-x="471" d="M236 528q40 0 40 -41t-40 -41q-41 0 -41 41t41 41z" />
<glyph unicode="&#xb8;" horiz-adv-x="1705" />
<glyph unicode="&#xb9;" horiz-adv-x="491" d="M283 678h-41v713l-201 -56l-8 4v33l243 72l7 -8v-758z" />
<glyph unicode="&#xba;" horiz-adv-x="673" d="M342 1319q119 0 185 -79q67 -81 67 -220q0 -145 -70 -229q-69 -82 -192 -82q-121 0 -186 78q-66 79 -66 221q0 145 70 229q69 82 192 82zM340 1280q-103 0 -160 -71t-57 -199q0 -126 55 -194t154 -68q105 0 162 70t57 200q0 125 -56 193q-57 69 -155 69z" />
<glyph unicode="&#xbb;" horiz-adv-x="727" d="M375 446l-318 -344l-24 19v12l297 324l-297 323v13l24 18l318 -342v-23zM674 446l-318 -344l-24 19v12l297 324l-297 323v13l24 18l318 -342v-23z" />
<glyph unicode="&#xbc;" horiz-adv-x="1343" d="M88 -184l-18 8l-9 18l994 1528l20 -10l6 -17zM41 1206l-8 4v33l243 72l7 -8v-758h-41v713zM1255 242l-102 2h-39l2 -240l-4 -4l-33 -4l-4 4v244h-287l-63 -2l-6 6v31l356 477h39v-475h141l7 -7zM1075 690h-6l-305 -409h311v409z" />
<glyph unicode="&#xbd;" horiz-adv-x="1345" d="M1081 1343l-993 -1527l-18 8l-9 18l994 1528l20 -10zM283 549h-41v713l-201 -56l-8 4v33l243 72l7 -8v-758zM1001 760q84 0 134 -43q51 -43 51 -111q0 -65 -48 -140q-40 -62 -141 -185l-192 -238l4 -4h358l125 2l4 -8l-6 -35l-133 2h-346l-59 -2l-4 4v31l219 268 q85 106 130 173q46 68 46 126q0 49 -37 85q-38 36 -109 36q-58 0 -117 -31q-56 -30 -102 -86h-6l-8 35q44 55 105 88q60 33 132 33z" />
<glyph unicode="&#xbe;" horiz-adv-x="1411" d="M156 -184l-19 8l-8 18l993 1528l21 -10l6 -17zM489 768q0 -99 -78 -161t-208 -62q-27 0 -61 3q-33 3 -62 9l-4 33l4 4q23 -4 62 -7q34 -3 61 -3q111 0 178 49q68 50 68 135q0 77 -58 121q-56 42 -166 47h-67l-4 4l2 31h59q32 0 65 13q34 13 62 37q30 26 47 56 q19 35 19 72q0 55 -40 89t-106 34q-87 0 -176 -80h-6l-8 35q91 84 194 84q82 0 133 -42q52 -43 52 -114q0 -59 -39 -111t-105 -81v-5q89 -18 135 -67q47 -50 47 -123zM1323 242l-102 2h-39l2 -240l-4 -4l-33 -4l-4 4v244h-287l-63 -2l-7 6v31l357 477h39v-475h141l6 -7z M1143 690h-6l-306 -409h312v409z" />
<glyph unicode="&#xc0;" horiz-adv-x="1134" d="M733 1487q-93 47 -178 92q-87 46 -178 98l-4 11l14 24l10 4q64 -38 190 -105q87 -47 171 -87l-15 -31zM1030 0l-26 88l-130 348h-618l-139 -348l-29 -88h-49l520 1305h41l477 -1305h-47zM582 1235h-9l-301 -758h588z" />
<glyph unicode="&#xc1;" horiz-adv-x="1134" d="M1030 0l-26 88l-130 348h-618l-139 -348l-29 -88h-49l520 1305h41l477 -1305h-47zM582 1235h-9l-301 -758h588zM731 1726l-2 -10q-81 -81 -145 -141q-72 -67 -150 -135l-10 2l-23 26q77 64 144 127q47 44 155 154l11 -2z" />
<glyph unicode="&#xc2;" horiz-adv-x="1134" d="M348 1540q81 58 104 76q54 43 97 80h33q68 -54 101 -80t103 -76l-14 -29h-10q-44 30 -99 71q-78 59 -96 73q-31 -25 -95 -73q-55 -41 -99 -71h-11zM1030 0l-26 88l-129 348h-619l-139 -348l-29 -88h-49l520 1305h41l477 -1305h-47zM582 1235h-9l-301 -758h588z" />
<glyph unicode="&#xc3;" horiz-adv-x="1134" d="M1030 0l-26 88l-130 348h-618l-139 -348l-29 -88h-49l520 1305h41l477 -1305h-47zM582 1235h-9l-301 -758h588z" />
<glyph unicode="&#xc4;" horiz-adv-x="1134" d="M424 1556q-41 0 -41 41t41 41t41 -41t-41 -41zM711 1556q-41 0 -41 41t41 41t41 -41t-41 -41zM1030 0l-26 88l-130 348h-618l-139 -348l-29 -88h-49l520 1305h41l477 -1305h-47zM582 1235h-9l-301 -758h588z" />
<glyph unicode="&#xc5;" horiz-adv-x="1134" d="M1030 0l-26 88l-130 348h-618l-139 -348l-29 -88h-49l520 1305h41l477 -1305h-47zM582 1235h-9l-301 -758h588zM565 1747q71 0 109 -45q37 -44 37 -98q0 -68 -46 -105t-100 -37q-52 0 -98 38q-45 38 -45 106q0 60 39 100q39 41 104 41zM565 1706q-47 0 -75 -28 q-27 -27 -27 -72q0 -48 31 -76q30 -27 71 -27t73 26t32 75q0 40 -26 71t-79 31z" />
<glyph unicode="&#xc6;" horiz-adv-x="1619" d="M1561 0h-623l-10 88l-86 506l-535 -88l-239 -418l-43 -88h-56l754 1305h616l7 -9l-11 -32h-563l105 -623l483 80l6 -6l-6 -35l-477 -78l94 -561h588l4 -8zM733 1233h-6l-391 -680l500 82z" />
<glyph unicode="&#xc7;" horiz-adv-x="1071" d="M1001 127q-79 -61 -170 -96t-182 -41l-33 -103l64 -41q34 -22 51 -45t17 -57q0 -52 -37 -80q-38 -29 -86 -29q-47 0 -76 23q-29 22 -45 45l12 37h8q16 -26 40 -46q21 -18 61 -18q37 0 59 18q23 18 23 50q0 24 -14 38q-13 14 -36 30l-90 57l41 121q-249 5 -379 173 q-131 170 -131 486q0 321 140 493q140 171 403 171q96 0 192 -31q90 -29 168 -90l-14 -35h-14q-68 54 -155 85q-86 30 -177 30q-246 0 -374 -161t-128 -464q0 -299 123 -458q122 -158 354 -158q98 0 196 36t179 101l15 -4z" />
<glyph unicode="&#xc8;" horiz-adv-x="929" d="M711 1487q-122 62 -179 92q-87 46 -178 98l-4 11l15 24l10 4q74 -44 189 -105q87 -47 171 -87l-14 -31zM862 0h-637v1305h631l6 -9l-8 -32h-588v-568h488l6 -8l-8 -33h-486v-614h598l6 -8z" />
<glyph unicode="&#xc9;" horiz-adv-x="929" d="M418 1520q84 40 171 87q115 61 189 105l10 -4l15 -25l-4 -10q-91 -52 -178 -98q-57 -30 -179 -92l-10 6zM862 0h-637v1305h631l6 -9l-8 -32h-588v-568h488l6 -8l-8 -33h-486v-614h598l6 -8z" />
<glyph unicode="&#xca;" horiz-adv-x="929" d="M326 1540q70 50 103 76q54 43 97 80h33q68 -54 101 -80q23 -18 104 -76l-14 -29h-11q-44 30 -99 71q-64 48 -95 73q-31 -25 -95 -73q-46 -34 -100 -71h-10zM862 0h-637v1305h631l6 -9l-8 -32h-588v-568h488l6 -8l-8 -33h-486v-614h598l6 -8z" />
<glyph unicode="&#xcb;" horiz-adv-x="929" d="M401 1556q-41 0 -41 41t41 41t41 -41t-41 -41zM688 1556q-41 0 -41 41t41 41t41 -41t-41 -41zM862 0h-637v1305h631l6 -9l-8 -32h-588v-568h488l6 -8l-8 -33h-486v-614h598l6 -8z" />
<glyph unicode="&#xcc;" horiz-adv-x="491" d="M76 1716q74 -44 189 -105q87 -47 171 -87l-14 -31l-10 -6q-122 62 -179 92q-87 46 -178 98l-4 11l15 24zM225 0v1305h41v-1305h-41z" />
<glyph unicode="&#xcd;" horiz-adv-x="491" d="M225 0v1305h41v-1305h-41zM412 1726l-2 -10q-66 -66 -146 -141q-84 -79 -149 -135l-11 2l-22 26q68 57 143 127q60 56 156 154l10 -2z" />
<glyph unicode="&#xce;" horiz-adv-x="491" d="M27 1540q70 50 103 76q54 43 97 80h33q68 -54 101 -80q23 -18 104 -76l-14 -29h-11q-44 30 -99 71q-64 48 -95 73q-31 -25 -95 -73q-46 -34 -100 -71h-10zM225 0v1305h41v-1305h-41z" />
<glyph unicode="&#xcf;" horiz-adv-x="491" d="M143 1638q41 0 41 -41t-41 -41t-41 41t41 41zM348 1638q41 0 41 -41t-41 -41t-41 41t41 41zM225 0v1305h41v-1305h-41z" />
<glyph unicode="&#xd0;" horiz-adv-x="1304" d="M637 1315q275 0 423 -160q146 -158 146 -461q0 -342 -151 -523t-439 -181q-35 0 -69 1q-18 1 -55.5 1.5t-56.5 0.5q-80 2 -119 3q-7 0 -91 4v1305zM616 31q267 0 408 171t141 492q0 281 -136 430q-136 150 -392 150q-33 0 -65 -1q-48 -1 -105 -3l-114 -3q-57 -1 -87 -3 v-1223q7 0 22.5 -1t31.5 -2t31 -1q17 -1 52.5 -2t53.5 -1q17 0 49.5 -0.5t47.5 -1.5q29 -1 62 -1zM907 913l-501 -67l-9 8v33l502 67l8 -8v-33z" />
<glyph unicode="&#xd1;" horiz-adv-x="1372" d="M1143 0h-39l-828 1219h-8l-2 -811v-408h-41v389l2 916h39l828 -1219h8l4 1217l41 4l-2 -947z" />
<glyph unicode="&#xd2;" horiz-adv-x="1284" d="M651 1315q261 0 398 -165q137 -166 137 -476q0 -332 -144 -508t-411 -176q-258 0 -395 170q-138 171 -138 489q0 323 143 495q143 171 410 171zM651 1274q-248 0 -380 -161t-132 -464q0 -301 127 -459q128 -159 365 -159q248 0 381 166t133 477q0 291 -127 445 q-128 155 -367 155zM508 1749q96 -98 156 -154q75 -70 143 -127l-23 -26l-10 -2q-65 56 -149 135q-80 75 -146 141l-2 10l21 21z" />
<glyph unicode="&#xd3;" horiz-adv-x="1284" d="M651 1315q261 0 398 -165q137 -166 137 -476q0 -332 -144 -508t-411 -176q-258 0 -395 170q-138 171 -138 489q0 323 143 495q143 171 410 171zM651 1274q-248 0 -380 -161t-132 -464q0 -301 127 -459q128 -159 365 -159q248 0 381 166t133 477q0 291 -127 445 q-128 155 -367 155zM807 1726l-2 -10q-66 -66 -146 -141q-84 -79 -149 -135l-10 2l-23 26q77 64 144 127q47 44 155 154l10 -2z" />
<glyph unicode="&#xd4;" horiz-adv-x="1284" d="M424 1540q70 50 103 76q64 51 98 80h32q19 -15 54 -42.5t48 -37.5q33 -26 103 -76l-14 -29h-10q-54 37 -100 71q-64 48 -95 73q-31 -25 -95 -73q-55 -41 -99 -71h-11zM651 1315q261 0 398 -165q137 -166 137 -476q0 -332 -144 -508t-411 -176q-258 0 -395 170 q-138 171 -138 489q0 323 143 495q143 171 410 171zM651 1274q-248 0 -380 -161t-132 -464q0 -301 127 -459q128 -159 365 -159q248 0 381 166t133 477q0 291 -127 445q-128 155 -367 155z" />
<glyph unicode="&#xd5;" horiz-adv-x="1284" d="M651 1315q261 0 398 -165q137 -166 137 -476q0 -332 -144 -508t-411 -176q-258 0 -395 170q-138 171 -138 489q0 323 143 495q143 171 410 171zM651 1274q-248 0 -380 -161t-132 -464q0 -301 127 -459q128 -159 365 -159q248 0 381 166t133 477q0 291 -127 445 q-128 155 -367 155z" />
<glyph unicode="&#xd6;" horiz-adv-x="1284" d="M651 1315q261 0 398 -165q137 -166 137 -476q0 -332 -144 -508t-411 -176q-258 0 -395 170q-138 171 -138 489q0 323 143 495q143 171 410 171zM651 1274q-248 0 -380 -161t-132 -464q0 -301 127 -459q128 -159 365 -159q248 0 381 166t133 477q0 291 -127 445 q-128 155 -367 155zM498 1638q41 0 41 -41t-41 -41t-41 41t41 41zM784 1638q41 0 41 -41t-41 -41t-41 41t41 41z" />
<glyph unicode="&#xd7;" horiz-adv-x="983" d="M793 825l-273 -272l273 -272v-9l-27 -22l-274 274l-275 -274l-27 22v9l273 272l-273 272v9l27 22l275 -274l274 274l27 -22v-9z" />
<glyph unicode="&#xd8;" horiz-adv-x="1284" d="M928 1249q126 -71 192 -217q66 -145 66 -358q0 -332 -144 -508t-411 -176q-147 0 -258 57l-105 -225l-32 6l-5 8l107 232q-117 78 -178 224q-62 148 -62 357q0 323 143 495q143 171 410 171q134 0 240 -47l86 184l33 -6l4 -10zM139 649q0 -196 56 -334t161 -209l518 1123 q-91 45 -223 45q-248 0 -380 -161t-132 -464zM631 31q248 0 381 166t133 477q0 199 -60 334t-176 202l-518 -1124q100 -55 240 -55z" />
<glyph unicode="&#xd9;" horiz-adv-x="1253" d="M465 1716q74 -44 189 -105q87 -47 171 -87l-14 -31l-10 -6q-93 47 -178 92q-99 52 -179 98l-4 11l15 24zM1077 469q6 -228 -112 -352q-119 -125 -338 -125q-222 0 -336 123q-115 124 -115 354v836h41v-836q-1 -211 104 -324q105 -112 306 -112q199 0 304 112 q105 113 105 324v836h41v-836z" />
<glyph unicode="&#xda;" horiz-adv-x="1253" d="M1077 469q6 -228 -112 -352q-119 -125 -338 -125q-222 0 -336 123q-115 124 -115 354v836h41v-836q-1 -211 104 -324q105 -112 306 -112q199 0 304 112q105 113 105 324v836h41v-836zM791 1726l-3 -10q-81 -81 -145 -141q-84 -79 -149 -135l-11 2l-22 26q68 57 143 127 q60 56 156 154l10 -2z" />
<glyph unicode="&#xdb;" horiz-adv-x="1253" d="M416 1540q70 50 103 76q54 43 97 80h33q19 -15 54 -42.5t48 -37.5q33 -26 103 -76l-14 -29h-11q-44 30 -99 71q-64 48 -95 73q-31 -25 -95 -73q-46 -34 -100 -71h-10zM1077 469q6 -228 -112 -352q-119 -125 -338 -125q-222 0 -336 123q-115 124 -115 354v836h41v-836 q-1 -211 104 -324q105 -112 306 -112q199 0 304 112q105 113 105 324v836h41v-836z" />
<glyph unicode="&#xdc;" horiz-adv-x="1253" d="M492 1638q40 0 40 -41t-40 -41q-41 0 -41 41t41 41zM778 1638q41 0 41 -41t-41 -41t-41 41t41 41zM1077 469q6 -228 -112 -352q-119 -125 -338 -125q-222 0 -336 123q-115 124 -115 354v836h41v-836q-1 -211 104 -324q105 -112 306 -112q199 0 304 112q105 113 105 324 v836h41v-836z" />
<glyph unicode="&#xdd;" horiz-adv-x="1013" d="M508 0h-41v504l-414 801h53l23 -54l354 -684h11l385 684l22 54h53l-446 -803v-502zM672 1726l-2 -10q-66 -66 -146 -141q-84 -79 -149 -135l-10 2l-23 26q68 57 143 127q60 56 156 154l10 -2z" />
<glyph unicode="&#xde;" />
<glyph unicode="&#xdf;" horiz-adv-x="1705" />
<glyph unicode="&#xe0;" horiz-adv-x="1011" d="M141 74l88 215h547l82 -215l21 -74h47l-115 303l-274 733h-43l-424 -1036h47zM510 973h6l244 -643h-514zM653 1102q-76 36 -133 67t-131 74l-6 10l14 23l11 2q92 -54 142 -80q42 -22 128 -65l-14 -27z" />
<glyph unicode="&#xe1;" horiz-adv-x="1011" d="M879 0l-21 72l-100 258h-508l-109 -258l-24 -72h-47l424 1006h43l389 -1006h-47zM516 944h-6l-244 -575h475zM670 1348l-2 -11q-66 -66 -146 -141q-84 -79 -149 -135l-11 2l-22 27q68 57 143 127q72 67 156 153l10 -2z" />
<glyph unicode="&#xe2;" horiz-adv-x="1011" d="M117 0h-47l424 1036h43l274 -733l115 -303h-47l-21 74l-82 215h-547l-88 -215zM246 330h516l-246 643h-6zM512 1241q-18 -16 -63 -53q-60 -48 -62 -49q-29 -24 -61 -49l-11 2l-16 24q54 42 62 48q35 26 67 55q26 21 74 63h26q49 -43 72 -61q32 -29 67 -55q13 -10 64 -50 l-16 -24l-8 -2q-38 26 -65 49q-24 21 -60 49q-56 46 -64 53h-6z" />
<glyph unicode="&#xe3;" horiz-adv-x="1011" d="M879 0l-21 72l-100 258h-508l-109 -258l-24 -72h-47l424 1006h43l389 -1006h-47zM516 944h-6l-244 -575h475z" />
<glyph unicode="&#xe4;" horiz-adv-x="1011" d="M141 74l88 215h547l82 -215l21 -74h47l-115 303l-274 733h-43l-424 -1036h47zM510 973h6l246 -643h-516zM330 1202q0 41 41 41t41 -41t-41 -41t-41 41zM616 1202q0 41 41 41t41 -41t-41 -41t-41 41z" />
<glyph unicode="&#xe5;" horiz-adv-x="1011" d="M879 0l-21 72l-100 258h-508l-109 -258l-24 -72h-47l424 1006h43l389 -1006h-47zM516 944h-6l-244 -575h475zM504 1368q70 0 108 -45q37 -44 37 -98q0 -68 -46 -105t-99 -37q-52 0 -98 38t-46 106q0 59 39 100t105 41zM504 1327q-47 0 -75 -28t-28 -72q0 -48 31 -76 q30 -27 72 -27q41 0 73 26q31 25 31 75q0 42 -25 71q-26 31 -79 31z" />
<glyph unicode="&#xe6;" horiz-adv-x="1409" d="M133 74l-35 -74h-53l584 1036h514l6 -8l-8 -35l-459 2l82 -483l393 63l6 -4l-4 -34l-389 -62l74 -434h481l4 -8l-6 -33h-516l-10 74l-68 393l-407 -74zM635 971l-285 -533l371 68l-80 465h-6z" />
<glyph unicode="&#xe7;" horiz-adv-x="956" d="M596 -139q34 -23 51 -45q17 -23 17 -58q0 -52 -37 -80t-86 -28q-48 0 -76 22q-29 22 -45 45l12 37h8q16 -26 40 -46q20 -17 61 -17q38 0 59 17q23 18 23 50q0 24 -14 38q-13 14 -36 30l-90 57l37 109q-197 11 -299 144q-102 134 -102 378q0 256 115 392t333 136 q78 0 156 -24q76 -23 139 -68l-12 -39h-12q-55 42 -127 67q-66 23 -144 23q-199 0 -302 -124t-103 -363q0 -234 99 -359q99 -124 286 -124q82 0 160 28q77 28 145 80l12 -4l-4 -39q-69 -48 -145 -74q-83 -29 -154 -30l-29 -90z" />
<glyph unicode="&#xe8;" horiz-adv-x="843" d="M750 0h-529v1036h524l7 -10l-9 -33l-481 2v-454h400l4 -9l-7 -34h-397v-459h490l6 -6zM598 1102q-76 36 -133 67t-131 74l-6 10l14 23l10 2q83 -49 143 -80q42 -22 128 -65l-15 -27z" />
<glyph unicode="&#xe9;" horiz-adv-x="843" d="M758 33l-6 8h-490v457h397l7 34l-4 9h-400v454l481 -2l9 35l-7 8h-524v-1036h529zM342 1137q97 48 128 65q61 33 142 78l9 -2l14 -23l-4 -8q-36 -22 -132 -73q-75 -40 -134 -68l-9 4z" />
<glyph unicode="&#xea;" horiz-adv-x="843" d="M750 0h-529v1036h524l7 -8l-9 -35l-481 2v-454h400l4 -9l-7 -34h-397v-457h490l6 -8zM489 1241q-18 -16 -63 -53q-32 -25 -61 -49q-2 -2 -62 -49l-10 2l-17 24q27 21 63 48q35 26 67 55q16 12 73 63h27q49 -43 72 -61q37 -33 66 -55q33 -25 65 -50l-17 -24l-8 -2 q-33 23 -64 49q-12 11 -61 49q-45 37 -63 53h-7z" />
<glyph unicode="&#xeb;" horiz-adv-x="843" d="M752 0h-529v1036h525l6 -8l-9 -35l-481 2v-454h400l4 -9l-6 -34h-398v-457h490l6 -8zM362 1161q-40 0 -40 41t40 41q41 0 41 -41t-41 -41zM608 1161q-41 0 -41 41t41 41t41 -41t-41 -41z" />
<glyph unicode="&#xec;" horiz-adv-x="485" d="M221 0v1006h41v-1006h-41zM109 1370q96 -97 155 -153q67 -63 144 -127l-23 -27l-10 -2q-78 67 -150 135q-64 60 -145 141l-2 11l20 20z" />
<glyph unicode="&#xed;" horiz-adv-x="485" d="M221 0v1006h41v-1006h-41zM408 1348l-2 -11q-66 -66 -146 -141q-84 -79 -149 -135l-11 2l-22 27q68 57 143 127q72 67 156 153l10 -2z" />
<glyph unicode="&#xee;" horiz-adv-x="485" d="M221 1036h41v-1036h-41v1036zM240 1241q-20 -16 -45 -41q-15 -13 -45 -41q-16 -15 -54 -47h-8l-18 23q22 23 51 48q39 35 53 48q25 21 55 51h27q35 -35 53 -51q23 -23 51 -48q22 -20 58 -50l-17 -25h-8q-30 24 -57 48q-6 5 -22.5 20t-24.5 22l-43 43h-6z" />
<glyph unicode="&#xef;" horiz-adv-x="485" d="M262 0h-41v1036h41v-1036zM145 1161q-41 0 -41 41t41 41t41 -41t-41 -41zM350 1161q-41 0 -41 41t41 41t41 -41t-41 -41z" />
<glyph unicode="&#xf0;" horiz-adv-x="933" d="M469 1020q165 0 254 -112q88 -110 88 -322q0 -275 -160 -482q-158 -204 -454 -309h-9l-18 23v8q254 92 401 248q149 158 187 366l-4 4q-68 -56 -151 -90q-79 -32 -175 -32q-149 0 -233 85t-84 244q0 180 92 275q91 94 266 94zM430 362q93 0 177 37q87 38 159 103 q0 7 1 20.5t2 20.5q1 14 1 43q0 189 -77 292q-76 101 -224 101q-153 0 -236 -84q-81 -82 -81 -244q0 -142 73 -215q74 -74 205 -74z" />
<glyph unicode="&#xf1;" horiz-adv-x="1204" d="M979 0h-41l-668 924h-6l-2 -609v-315h-41v299l2 707h41l668 -924h8l2 922l41 4l-2 -727z" />
<glyph unicode="&#xf2;" horiz-adv-x="1132" d="M575 1014q213 0 326 -128t113 -366q0 -256 -118 -392t-339 -136q-211 0 -325 131q-113 129 -113 377t117 381t339 133zM573 973q-201 0 -306 -121q-105 -122 -105 -350q0 -230 101 -350q102 -121 294 -121q200 0 308 125q108 124 108 360q0 222 -103 340 q-102 117 -297 117zM432 1370q84 -86 156 -153q75 -70 143 -127l-22 -27l-11 -2q-65 56 -149 135q-80 75 -146 141l-2 11l21 20z" />
<glyph unicode="&#xf3;" horiz-adv-x="1132" d="M575 1014q213 0 326 -128t113 -366q0 -256 -118 -392t-339 -136q-211 0 -325 131q-113 129 -113 377t117 381t339 133zM573 973q-201 0 -306 -121q-105 -122 -105 -350q0 -230 101 -350q102 -121 294 -121q200 0 308 125q108 124 108 360q0 222 -103 340 q-102 117 -297 117zM731 1348l-2 -11q-81 -81 -145 -141q-72 -68 -150 -135l-10 2l-23 27q77 64 144 127q59 56 155 153l11 -2z" />
<glyph unicode="&#xf4;" horiz-adv-x="1132" d="M557 -8q-211 0 -325 135q-113 134 -113 387q0 256 117 393t339 137q213 0 326 -132q113 -133 113 -375q0 -265 -118 -405t-339 -140zM573 1001q-202 0 -306 -123q-105 -124 -105 -362q0 -237 101 -360q102 -125 294 -125q200 0 308 129t108 372q0 229 -103 350 q-101 119 -297 119zM565 1241q-18 -16 -63 -53q-60 -48 -62 -49q-29 -24 -61 -49l-10 2l-17 24q27 21 63 48q29 22 66 55q27 21 74 63h27q60 -53 71 -61q32 -29 67 -55q13 -10 64 -50l-16 -24l-8 -2q-38 26 -65 49q-24 21 -60 49q-56 46 -64 53h-6z" />
<glyph unicode="&#xf5;" horiz-adv-x="1132" d="M575 1014q213 0 326 -128t113 -366q0 -256 -118 -392t-339 -136q-211 0 -325 131q-113 129 -113 377t117 381t339 133zM573 973q-201 0 -306 -121q-105 -122 -105 -350q0 -230 101 -350q102 -121 294 -121q200 0 308 125q108 124 108 360q0 222 -103 340 q-102 117 -297 117z" />
<glyph unicode="&#xf6;" horiz-adv-x="1132" d="M575 1014q213 0 326 -128t113 -366q0 -256 -118 -392t-339 -136q-211 0 -325 131q-113 129 -113 377t117 381t339 133zM573 973q-201 0 -306 -121q-105 -122 -105 -350q0 -230 101 -350q102 -121 294 -121q200 0 308 125q108 124 108 360q0 222 -103 340 q-102 117 -297 117zM422 1260q41 0 41 -41t-41 -41t-41 41t41 41zM709 1260q41 0 41 -41t-41 -41t-41 41t41 41z" />
<glyph unicode="&#xf7;" horiz-adv-x="983" d="M541 965q41 0 41 -41t-41 -41t-41 41t41 41zM930 532h-813l-6 7l4 34h813l6 -6zM541 221q41 0 41 -41t-41 -41t-41 41t41 41z" />
<glyph unicode="&#xf8;" horiz-adv-x="1132" d="M795 967q219 -111 219 -447q0 -256 -118 -392t-339 -136q-101 0 -180 31l-90 -201l-33 6l-4 8l90 203q-108 55 -165 171q-56 113 -56 290q0 248 117 381t339 133q103 0 185 -31l63 143l31 -4l4 -10zM162 502q0 -320 194 -426l385 868q-78 29 -168 29q-201 0 -306 -121 q-105 -122 -105 -350zM557 31q200 0 308 125q108 124 108 360q0 152 -50 258q-49 103 -147 154l-385 -869q72 -28 166 -28z" />
<glyph unicode="&#xf9;" horiz-adv-x="1107" d="M553 -6q180 0 278 98q99 99 95 279v665h-41v-663q0 -167 -85 -252q-86 -86 -247 -86t-247 86q-85 85 -83 252l4 663h-43v-514l-2 -151q-4 -182 92 -280q96 -97 279 -97zM664 1102q-85 41 -134 67q-57 31 -131 74l-6 10l15 23l10 2q92 -54 142 -80q42 -22 128 -65l-14 -27 z" />
<glyph unicode="&#xfa;" horiz-adv-x="1107" d="M926 360q4 -174 -95 -270t-278 -96q-184 0 -279 94q-96 95 -92 272l2 148v498h43l-4 -644q-2 -159 83 -244t247 -85t247 85t85 244v644h41v-646zM719 1348l-2 -11q-66 -66 -146 -141q-84 -79 -149 -135l-10 2l-23 27q68 57 143 127q72 67 156 153l10 -2z" />
<glyph unicode="&#xfb;" horiz-adv-x="1107" d="M553 -6q-183 0 -279 97q-96 98 -92 280l2 151v514h43l-4 -663q-2 -167 83 -252q86 -86 247 -86t247 86q85 85 85 252v663h41v-665q4 -180 -95 -279q-98 -98 -278 -98zM565 1241q-18 -16 -63 -53q-60 -48 -62 -49q-29 -24 -61 -49l-10 2l-17 24q27 21 63 48q29 22 66 55 q27 21 74 63h27q60 -53 71 -61q32 -29 67 -55q13 -10 64 -50l-16 -24l-8 -2q-38 26 -65 49q-24 21 -60 49q-56 46 -64 53h-6z" />
<glyph unicode="&#xfc;" horiz-adv-x="1107" d="M553 -6q180 0 278 98q99 99 95 279v665h-41v-663q0 -167 -85 -252q-86 -86 -247 -86t-247 86q-85 85 -83 252l4 663h-43v-514l-2 -151q-4 -182 92 -280q96 -97 279 -97zM375 1202q0 41 41 41t41 -41t-41 -41t-41 41zM662 1202q0 41 40 41q41 0 41 -41t-41 -41 q-40 0 -40 41z" />
<glyph unicode="&#xfd;" horiz-adv-x="915" d="M463 0h-41v383l-340 623h51l19 -43l286 -519h8l312 519l20 43h51l-366 -625v-381zM623 1348l-2 -11q-66 -66 -146 -141q-84 -79 -149 -135l-11 2l-22 27q68 57 143 127q72 67 156 153l10 -2z" />
<glyph unicode="&#xfe;" horiz-adv-x="655" d="M348 -543h-35l-6 8v2151l37 4l4 -4v-2159zM373 526q113 -17 178 -76t65 -171q0 -135 -99 -209q-100 -74 -288 -74h-92q-56 0 -96 4v1006l215 2q133 0 206 -61t73 -173q0 -100 -43 -159q-44 -61 -119 -89zM82 969v-426l217 -4q92 17 141 76t49 157q0 92 -61 144 q-62 53 -166 53h-180zM223 33q171 0 260 64q90 65 90 182q0 99 -66 156q-65 56 -194 67l-231 -2v-461q68 -6 141 -6z" />
<glyph unicode="&#xff;" horiz-adv-x="915" d="M422 0h41v381l366 655h-51l-20 -45l-312 -545h-8l-286 545l-19 45h-51l340 -653v-383zM297 1202q0 41 41 41t41 -41t-41 -41t-41 41zM545 1202q0 41 41 41t41 -41t-41 -41t-41 41z" />
<glyph unicode="&#x152;" horiz-adv-x="1705" d="M733 1329q84 0 156 -12t158 -12h585l6 -9l-8 -32h-588v-568h488l6 -8l-8 -33h-486v-614h598l7 -8l-9 -33h-591q-89 0 -173 -12q-91 -13 -161 -13q-295 0 -455 178t-160 496q0 323 165 501q165 179 470 179zM733 1288q-287 0 -440 -168q-154 -169 -154 -473 q0 -294 149 -463q148 -168 435 -168q17 0 61 2q7 0 64 6q38 4 56 7q26 5 40 6q35 6 46 16t11 35l-4 1112q0 38 -6 50t-22 16q-12 2 -39 6q-19 3 -59 7q-37 3 -68 6q-37 3 -70 3z" />
<glyph unicode="&#x153;" horiz-adv-x="1478" d="M623 -18q-243 0 -373 136q-131 137 -131 382q0 248 135 386t387 138q68 0 128 -9t130 -9h483l4 -9l-6 -32l-481 2v-441h397l7 -8l-9 -33h-395v-446h490l4 -6l-7 -33h-487q-72 0 -141 -9t-135 -9zM639 985q-229 0 -353 -127t-124 -358q0 -229 118 -354q119 -126 351 -126 q40 0 103 7q61 7 77 10q29 5 38 12t9 29l-4 837q0 30 -4 39q-5 12 -19 13q-10 0 -31 3t-48 6t-57 6t-56 3z" />
<glyph unicode="&#x178;" horiz-adv-x="1013" d="M346 1556q-41 0 -41 41t41 41t41 -41t-41 -41zM633 1556q-41 0 -41 41t41 41t41 -41t-41 -41zM508 0h-41v504l-414 801h53l23 -54l354 -684h11l385 684l22 54h53l-446 -803v-502z" />
<glyph unicode="&#x2c6;" horiz-adv-x="798" d="M174 1090q53 60 100 119q66 84 107 139h37q59 -79 106 -139q39 -50 101 -119l-19 -25h-10q-67 77 -101 118q-59 72 -96 122q-46 -62 -95 -122q-34 -41 -101 -118h-10z" />
<glyph unicode="&#x2dc;" />
<glyph unicode="&#x2000;" horiz-adv-x="874" />
<glyph unicode="&#x2001;" horiz-adv-x="1749" />
<glyph unicode="&#x2002;" horiz-adv-x="874" />
<glyph unicode="&#x2003;" horiz-adv-x="1749" />
<glyph unicode="&#x2004;" horiz-adv-x="583" />
<glyph unicode="&#x2005;" horiz-adv-x="437" />
<glyph unicode="&#x2006;" horiz-adv-x="291" />
<glyph unicode="&#x2007;" horiz-adv-x="291" />
<glyph unicode="&#x2008;" horiz-adv-x="218" />
<glyph unicode="&#x2009;" horiz-adv-x="349" />
<glyph unicode="&#x200a;" horiz-adv-x="97" />
<glyph unicode="&#x2010;" horiz-adv-x="636" d="M573 535l-501 -68l-9 8v33l502 67l8 -8v-32z" />
<glyph unicode="&#x2011;" horiz-adv-x="636" d="M573 535l-501 -68l-9 8v33l502 67l8 -8v-32z" />
<glyph unicode="&#x2012;" horiz-adv-x="636" d="M573 535l-501 -68l-9 8v33l502 67l8 -8v-32z" />
<glyph unicode="&#x2013;" horiz-adv-x="1007" d="M1034 500h-1059l-6 6l4 35h1059l6 -6z" />
<glyph unicode="&#x2014;" horiz-adv-x="1990" d="M2017 500h-2042l-6 6l4 35h2042l6 -6z" />
<glyph unicode="&#x2018;" horiz-adv-x="253" d="M168 981q-102 24 -102 113q0 95 108 209l27 -23v-8q-90 -96 -90 -170q0 -62 77 -80v-8q-1 -6 -7 -15q-2 -3 -7 -9.5t-6 -8.5z" />
<glyph unicode="&#x2019;" horiz-adv-x="253" d="M94 1298q103 -24 103 -112q0 -94 -109 -209l-27 22v9q91 97 91 170q0 61 -78 79v9q1 4 7 14q2 3 7 9.5t6 8.5z" />
<glyph unicode="&#x201a;" horiz-adv-x="471" d="M219 84q78 -34 78 -98q0 -86 -135 -191l-21 23l2 6q111 82 111 160q0 41 -61 69v8q11 16 26 23z" />
<glyph unicode="&#x201c;" horiz-adv-x="421" d="M150 981q-103 24 -103 113q0 94 109 209l26 -23v-8q-90 -96 -90 -170q0 -62 78 -80v-8q-1 -6 -7 -15q-2 -3 -7 -9.5t-6 -8.5zM344 981q-102 24 -102 113q0 95 108 209l27 -23v-8q-90 -96 -90 -170q0 -62 78 -80v-8q-1 -3 -8 -15q-2 -3 -7 -9.5t-6 -8.5z" />
<glyph unicode="&#x201d;" horiz-adv-x="448" d="M86 1298q102 -24 102 -112q0 -95 -108 -209l-27 22v9q90 96 90 170q0 61 -77 79v9q1 4 7 14q2 3 7 9.5t6 8.5zM281 1298q102 -24 102 -112q0 -94 -109 -209l-26 22v9q90 96 90 170q0 61 -78 79v9q1 4 7 14q2 3 7 9t7 9z" />
<glyph unicode="&#x201e;" horiz-adv-x="665" d="M219 84q78 -34 78 -98q0 -86 -135 -191l-21 23l2 6q111 82 111 160q0 41 -61 69v8q11 16 26 23zM414 84q78 -34 78 -98q0 -85 -136 -191l-20 23l2 6q111 83 111 160q0 40 -62 69v8q11 16 27 23z" />
<glyph unicode="&#x2022;" horiz-adv-x="473" d="M236 528q40 0 40 -41t-40 -41q-41 0 -41 41t41 41z" />
<glyph unicode="&#x2026;" horiz-adv-x="1085" d="M227 78q41 0 41 -41t-41 -41t-41 41t41 41zM535 78q40 0 40 -41t-40 -41q-41 0 -41 41t41 41zM842 78q41 0 41 -41t-41 -41t-41 41t41 41z" />
<glyph unicode="&#x202f;" horiz-adv-x="349" />
<glyph unicode="&#x2039;" horiz-adv-x="438" d="M61 467l318 344l24 -18v-13l-297 -323l297 -324v-12l-24 -19l-318 342v23z" />
<glyph unicode="&#x203a;" horiz-adv-x="428" d="M385 446l-317 -344l-25 19v12l297 324l-297 323v13l25 18l317 -342v-23z" />
<glyph unicode="&#x205f;" horiz-adv-x="437" />
<glyph unicode="&#x20ac;" horiz-adv-x="1030" d="M80 385h131q-6 57 -6 121q0 33 1 49q2 32 3 47h-127l-6 6l4 37h133q29 192 138 294q108 101 294 101q76 0 151 -24q71 -23 134 -70l-12 -37h-13q-52 43 -122 66q-67 22 -140 22q-163 0 -260 -89q-96 -89 -125 -263h444l7 -6l-4 -37h-453q-1 -15 -3 -47q-1 -16 -1 -49 q0 -23 2 -63q1 -29 6 -58h446l7 -6l-4 -35h-441q29 -153 119 -233q91 -80 235 -80q78 0 155 27q75 27 140 79l13 -4l-4 -39q-68 -51 -147 -78q-77 -26 -157 -26q-165 0 -267 90q-101 89 -134 264h-135l-6 6z" />
<glyph unicode="&#x2122;" horiz-adv-x="1175" d="M416 1300l-4 -30l-86 2h-66l-2 -295l2 -148h-39v443h-65l-88 -2l-5 4l5 31h344zM1014 829l-17 146l-30 260h-6l-158 -348h-37l-154 348h-4l-33 -256l-14 -150h-37l56 476h49l28 -72l127 -291h2l138 295l26 68h47l52 -476h-35z" />
<glyph unicode="&#x25fc;" horiz-adv-x="1034" d="M0 1034h1034v-1034h-1034v1034z" />
</font>
</defs>
</svg>
